<svg width="154" height="62" viewBox="0 0 154 62" fill="none" xmlns="http://www.w3.org/2000/svg">
<path fill-rule="evenodd" clip-rule="evenodd" d="M52.993 19.5624C53.7149 19.7754 54.4314 20.0071 55.1418 20.2571C62.3512 22.8035 67.0099 26.7924 67.0099 30.9168C67.0099 35.2182 62.0313 39.4238 54.3788 42.0251C53.9744 42.1627 53.5599 42.2948 53.1374 42.4227C53.2881 43.0447 53.4225 43.6555 53.5377 44.2535C55.0485 52.083 53.8852 58.5183 50.3047 60.6449C46.838 62.7039 41.2351 60.6813 35.5619 55.6724C34.9453 55.1267 34.3436 54.5634 33.7575 53.9832C33.2923 54.4449 32.8276 54.8853 32.3646 55.3005C26.5077 60.5534 20.493 62.7327 16.9093 60.6125C13.4397 58.5589 12.3493 52.5686 13.7454 45.0243C13.898 44.2044 14.0728 43.389 14.2698 42.5791C13.6635 42.4016 13.0617 42.2085 12.4648 42.0002C5.10362 39.4189 0.258789 35.1615 0.258789 30.9168C0.258789 26.8073 4.77216 22.8451 11.8391 20.3172C12.6291 20.0347 13.4547 19.7691 14.3097 19.52C14.1265 18.7682 13.962 18.0118 13.8163 17.2515C12.352 9.57383 13.3824 3.43804 16.8612 1.37176C20.4892 -0.783027 26.5314 1.53089 32.5593 7.02258C32.9343 7.36492 33.303 7.71437 33.6654 8.07072C34.2064 7.5348 34.7606 7.01298 35.3274 6.50578C41.0791 1.37024 46.7742 -0.778178 50.2563 1.28234C53.8881 3.43076 54.9516 9.95726 53.325 18.0587C53.2234 18.562 53.1127 19.0633 52.993 19.5624ZM52.8299 39.5358C53.2211 39.4207 53.6051 39.302 53.9791 39.1791C60.7517 36.9517 64.9234 33.5434 64.9234 30.9181C64.9234 28.4536 61.0612 25.2549 54.7292 23.0918C54.0745 22.8679 53.3949 22.656 52.6951 22.4546C51.8532 25.1581 50.7298 28.0142 49.3649 30.9326C50.7949 33.9215 51.9638 36.8149 52.8299 39.5358ZM51.4977 53.6689C51.9514 51.2425 51.8536 48.1388 51.1689 44.7059C51.062 44.17 50.9378 43.6221 50.7985 43.0631C47.9644 43.7132 44.8392 44.1895 41.5312 44.4808C39.6507 47.1827 37.7238 49.616 35.7957 51.709C36.3717 52.259 36.9461 52.779 37.5164 53.2659C42.4893 57.5132 47.101 59.1236 49.2574 57.8847C50.2707 57.3025 51.0901 55.8491 51.4977 53.6689ZM17.95 57.8498C18.9641 58.4302 20.6421 58.4092 22.7488 57.6707C25.0933 56.8487 27.7539 55.2149 30.4088 52.9115C30.8531 52.5251 31.2878 52.1278 31.7124 51.7201C29.7144 49.5919 27.7318 47.1617 25.8389 44.5177C22.5229 44.2508 19.4205 43.8081 16.6179 43.1929C16.4303 43.9398 16.2637 44.6916 16.1182 45.4476C14.8945 51.8448 15.7915 56.6146 17.95 57.8498ZM4.89827 34.9551C6.78698 36.5601 9.54238 38.031 12.8789 39.1628C13.4375 39.3515 14.0007 39.5264 14.568 39.6876C15.4323 36.891 16.5715 33.9549 17.9445 30.9888C16.5891 28.0662 15.4659 25.1761 14.6095 22.412C13.8174 22.6342 13.0321 22.8795 12.2545 23.1474C6.05899 25.2912 2.34425 28.4455 2.34425 30.9181C2.34425 32.0804 3.20124 33.5125 4.89827 34.9551ZM17.9046 4.13308C15.7554 5.36774 14.9015 10.288 16.1875 16.8109C16.3266 17.5122 16.4834 18.2096 16.6578 18.903C19.4898 18.2662 22.5705 17.7907 25.7886 17.4946C27.6652 14.866 29.6296 12.4541 31.6173 10.3355C31.2742 10.01 30.9317 9.69536 30.5908 9.39481C25.2556 4.6933 20.1939 2.81787 17.9046 4.13308ZM43.6222 20.648C44.3403 21.7651 45.034 22.8975 45.7029 24.0442C46.3826 25.2091 47.0389 26.3873 47.6712 27.5781C48.5367 25.5674 49.2717 23.606 49.8613 21.7303C47.8972 21.2852 45.8056 20.9215 43.6222 20.648ZM37.6932 17.2332C36.365 15.4771 35.0147 13.8583 33.6665 12.4087C32.2972 13.8751 30.9354 15.4915 29.606 17.2314C32.3003 17.1062 34.999 17.1068 37.6932 17.2332ZM19.6216 27.576C20.2378 26.3906 20.8817 25.2196 21.553 24.0641C22.2251 22.9074 22.9245 21.7666 23.6506 20.6426C21.4815 20.9116 19.3996 21.266 17.4473 21.6996C18.042 23.6021 18.7703 25.5722 19.6216 27.576ZM17.407 40.3945C19.3587 40.8162 21.4721 41.1525 23.713 41.4007C22.9691 40.2553 22.2528 39.0924 21.5648 37.9131C20.8905 36.757 20.2437 35.5854 19.6249 34.3991C18.7555 36.4459 18.0112 38.4583 17.407 40.3945ZM29.6305 44.7425C30.9802 46.5077 32.362 48.1487 33.7474 49.6325C35.0865 48.1691 36.4319 46.5257 37.7644 44.7284C36.4074 44.7885 35.0286 44.8195 33.6338 44.8195C32.2763 44.8195 30.9405 44.7936 29.6305 44.7425ZM49.9969 40.2688C49.3846 38.3655 48.6136 36.3638 47.6991 34.2948C47.0646 35.5087 46.403 36.7084 45.7147 37.893C45.0376 39.0586 44.3373 40.2108 43.614 41.3487C45.871 41.08 48.0128 40.7182 49.9969 40.2688ZM39.8999 41.7004C41.0512 39.9839 42.146 38.2308 43.1825 36.4437C44.228 34.6466 45.2089 32.8131 46.1229 30.9467C45.1994 29.0991 44.2156 27.2818 43.1731 25.4977C42.1364 23.7183 41.0368 21.9757 39.8763 20.2732C37.8419 20.1194 35.7527 20.0388 33.6341 20.0388C31.525 20.0388 29.4385 20.1188 27.4035 20.2714C26.2312 21.9765 25.1244 23.7252 24.0858 25.5136C23.0468 27.3017 22.076 29.1273 21.1754 30.9879C22.0783 32.8478 23.0521 34.6731 24.0946 36.4597C25.142 38.2558 26.2575 40.012 27.4387 41.7244C29.4334 41.8527 31.5047 41.9186 33.6338 41.9186C35.7718 41.9186 37.8697 41.8443 39.8999 41.7004ZM50.9554 17.583C52.395 10.6472 51.5038 5.35842 49.2126 4.04682C47.0614 2.81546 42.34 4.53822 37.2883 8.90161C36.752 9.36608 36.2273 9.8437 35.7148 10.334C37.6705 12.4253 39.6186 14.8414 41.4988 17.4986C44.7263 17.7991 47.809 18.283 50.6477 18.9331C50.7584 18.4849 50.861 18.0348 50.9554 17.583Z" fill="#878789"/>
<path d="M33.6347 24.6711C37.0911 24.6711 39.8926 27.4934 39.8926 30.9746C39.8926 34.4561 37.0911 37.2784 33.6347 37.2784C30.1787 37.2784 27.3768 34.4561 27.3768 30.9746C27.3768 27.4934 30.1787 24.6711 33.6347 24.6711Z" fill="#878789"/>
<path d="M75.1816 41.9971V19.7236H85.0546C87.0393 19.7236 88.5481 19.9262 89.5809 20.3314C90.6138 20.7264 91.4391 21.4304 92.0568 22.4432C92.6744 23.4561 92.9833 24.5754 92.9833 25.801C92.9833 27.3811 92.4719 28.7131 91.4492 29.7968C90.4265 30.8806 88.8468 31.5694 86.7102 31.8631C87.4899 32.2379 88.0823 32.6076 88.4873 32.9723C89.348 33.7623 90.1632 34.7499 90.9328 35.935L94.806 41.9971H91.0998L88.1531 37.3632C87.2924 36.0261 86.5836 35.0031 86.0267 34.2941C85.4697 33.5851 84.9685 33.0887 84.5229 32.8051C84.0875 32.5215 83.642 32.324 83.1863 32.2126C82.8521 32.1417 82.3053 32.1062 81.5459 32.1062H78.1283V41.9971H75.1816ZM78.1283 29.5538H84.4622C85.809 29.5538 86.8621 29.417 87.6215 29.1435C88.381 28.8599 88.9582 28.4143 89.3531 27.8065C89.748 27.1887 89.9455 26.5201 89.9455 25.801C89.9455 24.7476 89.5607 23.8816 88.7911 23.2029C88.0316 22.5243 86.8266 22.185 85.1761 22.185H78.1283V29.5538Z" fill="#878789"/>
<path d="M108.309 36.801L111.134 37.1504C110.689 38.8015 109.863 40.0828 108.658 40.9944C107.453 41.906 105.914 42.3618 104.041 42.3618C101.682 42.3618 99.8083 41.6376 98.421 40.1891C97.0438 38.7306 96.3553 36.6896 96.3553 34.0662C96.3553 31.3516 97.054 29.2448 98.4514 27.7457C99.8488 26.2467 101.661 25.4971 103.889 25.4971C106.046 25.4971 107.808 26.2315 109.175 27.7002C110.542 29.1689 111.225 31.2352 111.225 33.8991C111.225 34.0611 111.22 34.3042 111.21 34.6283H99.1804C99.2817 36.4009 99.7829 37.7582 100.684 38.7002C101.585 39.6422 102.709 40.1132 104.056 40.1132C105.059 40.1132 105.914 39.8498 106.623 39.3231C107.332 38.7964 107.894 37.9557 108.309 36.801ZM99.3323 32.3797H108.339C108.218 31.0224 107.874 30.0045 107.307 29.3259C106.436 28.2724 105.307 27.7457 103.919 27.7457C102.664 27.7457 101.606 28.1661 100.745 29.0068C99.8943 29.8475 99.4235 30.9718 99.3323 32.3797Z" fill="#878789"/>
<path d="M125.108 40.0068C124.096 40.8678 123.118 41.4755 122.177 41.83C121.245 42.1845 120.243 42.3618 119.169 42.3618C117.397 42.3618 116.035 41.9313 115.083 41.0703C114.132 40.1993 113.656 39.0901 113.656 37.743C113.656 36.9529 113.833 36.2338 114.187 35.5855C114.552 34.9271 115.023 34.4004 115.6 34.0054C116.187 33.6104 116.845 33.3116 117.574 33.109C118.111 32.9672 118.921 32.8305 120.005 32.6988C122.212 32.4354 123.837 32.1214 124.88 31.7568C124.891 31.382 124.896 31.144 124.896 31.0427C124.896 29.9285 124.637 29.1435 124.121 28.6877C123.422 28.0699 122.384 27.7609 121.007 27.7609C119.721 27.7609 118.769 27.9888 118.152 28.4446C117.544 28.8903 117.093 29.6854 116.8 30.83L114.127 30.4654C114.37 29.3208 114.77 28.3991 115.326 27.7002C115.883 26.9911 116.688 26.4492 117.742 26.0745C118.795 25.6896 120.015 25.4971 121.402 25.4971C122.779 25.4971 123.898 25.6592 124.759 25.9833C125.62 26.3074 126.253 26.7177 126.658 27.214C127.063 27.7002 127.346 28.318 127.508 29.0676C127.599 29.5335 127.645 30.3742 127.645 31.5897V35.2361C127.645 37.7784 127.701 39.3889 127.812 40.0676C127.933 40.7361 128.166 41.3793 128.511 41.9971H125.655C125.372 41.4299 125.189 40.7665 125.108 40.0068ZM124.88 33.8991C123.888 34.3042 122.4 34.6486 120.415 34.9322C119.291 35.0943 118.496 35.2766 118.03 35.4792C117.564 35.6818 117.205 35.9806 116.952 36.3756C116.699 36.7605 116.572 37.191 116.572 37.667C116.572 38.3963 116.845 39.004 117.392 39.4902C117.949 39.9764 118.759 40.2195 119.822 40.2195C120.876 40.2195 121.812 39.9916 122.632 39.5358C123.453 39.0699 124.055 38.4368 124.44 37.6366C124.734 37.0188 124.88 36.1072 124.88 34.9018V33.8991Z" fill="#878789"/>
<path d="M142.424 36.0869L145.112 36.4364C144.819 38.29 144.064 39.7435 142.849 40.7969C141.644 41.8401 140.161 42.3618 138.399 42.3618C136.191 42.3618 134.414 41.6426 133.067 40.2043C131.731 38.7559 131.062 36.6845 131.062 33.9902C131.062 32.248 131.351 30.7236 131.928 29.417C132.505 28.1104 133.381 27.1329 134.556 26.4847C135.741 25.8263 137.027 25.4971 138.414 25.4971C140.166 25.4971 141.599 25.9428 142.712 26.8341C143.826 27.7154 144.54 28.9713 144.854 30.6021L142.196 31.0123C141.943 29.9285 141.492 29.1131 140.844 28.5662C140.206 28.0192 139.432 27.7457 138.52 27.7457C137.143 27.7457 136.024 28.2421 135.163 29.2347C134.303 30.2172 133.872 31.7771 133.872 33.9143C133.872 36.0818 134.288 37.6569 135.118 38.6394C135.948 39.6219 137.032 40.1132 138.368 40.1132C139.442 40.1132 140.338 39.784 141.057 39.1256C141.776 38.4672 142.231 37.4543 142.424 36.0869Z" fill="#878789"/>
<path d="M153.421 39.551L153.816 41.9668C153.046 42.1288 152.358 42.2098 151.75 42.2098C150.758 42.2098 149.988 42.0528 149.441 41.7389C148.894 41.4249 148.51 41.0146 148.287 40.5082C148.064 39.9916 147.953 38.9129 147.953 37.272V27.9888H145.948V25.8618H147.953V21.8659L150.672 20.225V25.8618H153.421V27.9888H150.672V37.4239C150.672 38.2039 150.717 38.7052 150.808 38.9281C150.91 39.1509 151.066 39.3282 151.279 39.4598C151.502 39.5915 151.816 39.6574 152.221 39.6574C152.525 39.6574 152.925 39.6219 153.421 39.551Z" fill="#878789"/>
</svg>
